# xmcd CD database file
#
# Track frame offsets:
#	150
#	19856
#	43047
#	65569
#	88802
#	102964
#	128962
#	145266
#	159698
#	175657
#	190988
#	205370
#	221457
#	236152
#	247715
#	266622
#	279893
#	303795
#
# Disc length: 4222 seconds
#
# Revision: 0
# Processed by: cddbd v1.5.2PL0 Copyright (c) Steve Scherf et al.
# Submitted via: CDex 1.70beta3
#
DISCID=01107c12
DTITLE=俺たちのブルース2 - 俺たちのブルース2
DYEAR=1900
DGENRE=Blues
TTITLE0=悲しい色やね
TTITLE1=酒と泪と男と女 (LIVE) 
TTITLE2=DIXIE FEVER
TTITLE3=YOKOHAMA HONKY TONK BLUES
TTITLE4=T-Bone Shuffle
TTITLE5=First Time I Met The Blues (LIVE) 
TTITLE6=ネグレスコ・ホテル 
TTITLE7=沖縄ベイ・ブルース 
TTITLE8=気絶するほど悩ましい 
TTITLE9=銃爪(ひきがね) 
TTITLE10=酔って候
TTITLE11=君に捧げるほろ苦いブルース
TTITLE12=あばよ
TTITLE13=梅田からナンバまで (LIVE) 
TTITLE14=最後の本音
TTITLE15=Dancing in the street 
TTITLE16=La Vie En Rose
TTITLE17=AFTER’45 
EXTD=
EXTT0=
EXTT1=
EXTT2=
EXTT3=
EXTT4=
EXTT5=
EXTT6=
EXTT7=
EXTT8=
EXTT9=
EXTT10=
EXTT11=
EXTT12=
EXTT13=
EXTT14=
EXTT15=
EXTT16=
EXTT17=
PLAYORDER=
